<svg width="22" height="24" viewBox="0 0 22 24" fill="none" xmlns="http://www.w3.org/2000/svg">
<path d="M8.828 10.0681C8.144 10.0681 7.604 10.6681 7.604 11.4001C7.604 12.1321 8.156 12.7321 8.828 12.7321C9.512 12.7321 10.052 12.1321 10.052 11.4001C10.064 10.6681 9.512 10.0681 8.828 10.0681ZM13.208 10.0681C12.524 10.0681 11.984 10.6681 11.984 11.4001C11.984 12.1321 12.536 12.7321 13.208 12.7321C13.892 12.7321 14.432 12.1321 14.432 11.4001C14.432 10.6681 13.892 10.0681 13.208 10.0681Z" fill="#6945F8"/>
<path d="M19.04 0H2.96C1.604 0 0.5 1.104 0.5 2.472V18.696C0.5 20.064 1.604 21.168 2.96 21.168H16.568L15.932 18.948L17.468 20.376L18.92 21.72L21.5 24V2.472C21.5 1.104 20.396 0 19.04 0ZM14.408 15.672C14.408 15.672 13.976 15.156 13.616 14.7C15.188 14.256 15.788 13.272 15.788 13.272C15.296 13.596 14.828 13.824 14.408 13.98C13.808 14.232 13.232 14.4 12.668 14.496C11.6403 14.6852 10.5862 14.6812 9.56 14.484C8.95751 14.3661 8.36705 14.1934 7.796 13.968C7.49499 13.8522 7.2023 13.7159 6.92 13.56C6.884 13.536 6.848 13.524 6.812 13.5C6.788 13.488 6.776 13.476 6.764 13.464C6.548 13.344 6.428 13.26 6.428 13.26C6.428 13.26 7.004 14.22 8.528 14.676C8.168 15.132 7.724 15.672 7.724 15.672C5.072 15.588 4.064 13.848 4.064 13.848C4.064 9.984 5.792 6.852 5.792 6.852C7.52 5.556 9.164 5.592 9.164 5.592L9.284 5.736C7.124 6.36 6.128 7.308 6.128 7.308C6.128 7.308 6.392 7.164 6.836 6.96C8.12 6.396 9.14 6.24 9.56 6.204C9.632 6.192 9.692 6.18 9.764 6.18C11.8449 5.89835 13.9612 6.29384 15.8 7.308C15.8 7.308 14.852 6.408 12.812 5.784L12.98 5.592C12.98 5.592 14.624 5.556 16.352 6.852C16.352 6.852 18.08 9.984 18.08 13.848C18.08 13.848 17.06 15.588 14.408 15.672Z" fill="#6945F8"/>
</svg>
