<svg xmlns="http://www.w3.org/2000/svg" viewBox="0 0 301.49 301.49"><defs><style>.cls-1{fill:#fff;}.cls-2{fill:#a5a5a5;}.cls-3{font-size:19.42px;stroke:#000;stroke-miterlimit:10;stroke-width:0.5px;font-family:GTCinetypeMono, GT Cinetype;letter-spacing:0.13em;}</style></defs><title>FDS_Logo_Square_White</title><g id="Layer_2" data-name="Layer 2"><g id="Layer_1-2" data-name="Layer 1"><rect class="cls-1" x="0.13" y="0.12" width="301.24" height="301.24"/><path class="cls-2" d="M301.24.25v301H.25V.25h301m.25-.25H0V301.49H301.49V0Z"/><path d="M229.6,127.58l4.16,1.34-2.58,3.53a.56.56,0,0,0-.1.24.3.3,0,0,0,.13.25l1.41,1a.63.63,0,0,0,.28.1.29.29,0,0,0,.24-.16l2.56-3.54,2.58,3.54a.29.29,0,0,0,.24.16.53.53,0,0,0,.28-.1l1.41-1a.34.34,0,0,0,.14-.25.75.75,0,0,0-.1-.24l-2.59-3.53,4.16-1.34a.34.34,0,0,0,.24-.32.82.82,0,0,0,0-.14l-.5-1.76c-.06-.17-.15-.25-.29-.25l-.16,0-4.16,1.42v-4.31a.31.31,0,0,0-.34-.35h-1.72a.31.31,0,0,0-.34.35v4.31l-4.15-1.42-.17,0c-.15,0-.24.09-.29.25l-.5,1.76,0,.14A.35.35,0,0,0,229.6,127.58Z"/><path d="M221,107.15l4.15,1.34L222.56,112a.73.73,0,0,0-.1.23.3.3,0,0,0,.14.25l1.4,1a.82.82,0,0,0,.29.1.27.27,0,0,0,.23-.17l2.57-3.54,2.58,3.54a.3.3,0,0,0,.23.17.67.67,0,0,0,.29-.1l1.41-1a.31.31,0,0,0,.13-.25.54.54,0,0,0-.1-.23l-2.58-3.54,4.16-1.34a.35.35,0,0,0,.23-.32.7.7,0,0,0,0-.14l-.5-1.76a.31.31,0,0,0-.29-.24l-.17,0-4.15,1.42v-4.31a.3.3,0,0,0-.34-.34h-1.73a.3.3,0,0,0-.33.34v4.31l-4.16-1.42-.17,0a.28.28,0,0,0-.28.25l-.5,1.75,0,.14A.34.34,0,0,0,221,107.15Z"/><path d="M207.85,89.37,212,90.71l-2.59,3.53a.67.67,0,0,0-.1.24.31.31,0,0,0,.14.25l1.41,1a.59.59,0,0,0,.28.1.28.28,0,0,0,.24-.17L214,92.15l2.58,3.53a.28.28,0,0,0,.24.17.56.56,0,0,0,.28-.1l1.41-1a.33.33,0,0,0,.13-.25.52.52,0,0,0-.1-.24l-2.58-3.53,4.16-1.34a.36.36,0,0,0,.23-.32.74.74,0,0,0,0-.15l-.5-1.75c-.06-.17-.16-.25-.29-.25l-.17,0-4.15,1.41v-4.3a.31.31,0,0,0-.34-.35h-1.73a.31.31,0,0,0-.33.35v4.3l-4.16-1.41-.16,0a.28.28,0,0,0-.29.25l-.5,1.75,0,.15A.35.35,0,0,0,207.85,89.37Z"/><path d="M190.84,75.16,195,76.5,192.42,80a.62.62,0,0,0-.1.24.3.3,0,0,0,.13.25l1.41,1a.62.62,0,0,0,.29.1c.09,0,.16,0,.23-.16L197,77.94l2.58,3.54a.26.26,0,0,0,.23.16.59.59,0,0,0,.29-.1l1.4-1a.34.34,0,0,0,.14-.25.85.85,0,0,0-.1-.24l-2.58-3.53,4.15-1.34a.34.34,0,0,0,.24-.32.43.43,0,0,0,0-.14l-.5-1.76a.3.3,0,0,0-.28-.25l-.17,0-4.16,1.42V69.84c0-.23-.11-.35-.33-.35h-1.73a.31.31,0,0,0-.33.35v4.31l-4.16-1.42-.17,0a.29.29,0,0,0-.28.25l-.51,1.76,0,.14A.35.35,0,0,0,190.84,75.16Z"/><path d="M170.85,65.25,175,66.59l-2.58,3.54a.54.54,0,0,0-.1.23.29.29,0,0,0,.13.25l1.41,1a.82.82,0,0,0,.29.1c.09,0,.16-.06.23-.17L177,68l2.58,3.54a.27.27,0,0,0,.23.17.67.67,0,0,0,.29-.1l1.41-1a.36.36,0,0,0,.13-.25.54.54,0,0,0-.1-.23l-2.58-3.54,4.15-1.34a.34.34,0,0,0,.24-.32.7.7,0,0,0,0-.14L182.76,63a.29.29,0,0,0-.28-.24l-.17,0-4.16,1.42V59.93c0-.23-.11-.35-.33-.35h-1.73a.31.31,0,0,0-.33.35v4.31l-4.16-1.42-.17,0a.28.28,0,0,0-.28.24l-.51,1.76,0,.14A.34.34,0,0,0,170.85,65.25Z"/><path d="M148.75,61.69,152.91,63l-2.58,3.53a.56.56,0,0,0-.1.24.3.3,0,0,0,.13.25l1.41,1a.62.62,0,0,0,.29.1.29.29,0,0,0,.23-.16l2.56-3.54L157.44,68a.26.26,0,0,0,.23.16.59.59,0,0,0,.29-.1l1.4-1a.34.34,0,0,0,.14-.25.75.75,0,0,0-.1-.24L156.82,63,161,61.69a.35.35,0,0,0,.24-.32.47.47,0,0,0,0-.15l-.5-1.75c-.06-.17-.15-.25-.28-.25l-.17,0-4.16,1.42V56.37c0-.23-.11-.35-.33-.35H154a.32.32,0,0,0-.34.35v4.31l-4.15-1.42-.17,0c-.15,0-.24.08-.28.25l-.51,1.76,0,.14A.36.36,0,0,0,148.75,61.69Z"/><path d="M126.66,63.64,130.82,65l-2.58,3.54a.54.54,0,0,0-.1.23.3.3,0,0,0,.13.26l1.41,1a.63.63,0,0,0,.28.1.3.3,0,0,0,.24-.17l2.56-3.54L135.34,70a.3.3,0,0,0,.24.17.53.53,0,0,0,.28-.1l1.41-1a.36.36,0,0,0,.14-.26.73.73,0,0,0-.1-.23L134.72,65l4.16-1.34a.34.34,0,0,0,.24-.32,1.19,1.19,0,0,0,0-.14l-.5-1.75c-.06-.17-.15-.25-.29-.25l-.16,0L134,62.63V58.32a.3.3,0,0,0-.34-.34h-1.72c-.23,0-.34.12-.34.34v4.31l-4.15-1.42-.17,0c-.15,0-.24.08-.29.25l-.5,1.75,0,.14A.34.34,0,0,0,126.66,63.64Z"/><path d="M105.66,70.52l4.16,1.34-2.58,3.54a.52.52,0,0,0-.1.24.3.3,0,0,0,.13.25l1.41,1a.62.62,0,0,0,.29.1c.09,0,.16-.06.23-.17l2.57-3.53,2.58,3.53a.27.27,0,0,0,.23.17.59.59,0,0,0,.29-.1l1.4-1a.36.36,0,0,0,.14-.25.67.67,0,0,0-.1-.24l-2.58-3.54,4.15-1.34a.34.34,0,0,0,.24-.32.43.43,0,0,0,0-.14l-.5-1.75c0-.17-.15-.25-.28-.25l-.17,0L113,69.51V65.2c0-.23-.11-.34-.33-.34h-1.73a.3.3,0,0,0-.33.34v4.31l-4.16-1.42-.17,0a.28.28,0,0,0-.28.25l-.51,1.75,0,.14A.34.34,0,0,0,105.66,70.52Z"/><path d="M86.83,82.23,91,83.57l-2.58,3.54a.54.54,0,0,0-.1.23.29.29,0,0,0,.13.25l1.41,1a.79.79,0,0,0,.28.1.3.3,0,0,0,.24-.17L92.93,85l2.58,3.54a.3.3,0,0,0,.24.17.63.63,0,0,0,.28-.1l1.41-1a.33.33,0,0,0,.14-.25.73.73,0,0,0-.1-.23l-2.59-3.54,4.16-1.34a.34.34,0,0,0,.24-.32,1.19,1.19,0,0,0,0-.14L98.75,80c-.06-.16-.15-.24-.29-.24l-.16,0-4.16,1.42V76.91a.3.3,0,0,0-.34-.34H92.08c-.23,0-.34.12-.34.34v4.31L87.59,79.8l-.17,0c-.15,0-.24.08-.29.25l-.5,1.75,0,.14A.35.35,0,0,0,86.83,82.23Z"/><path d="M71.19,98.19l4.16,1.34-2.58,3.54a.54.54,0,0,0-.1.23.3.3,0,0,0,.13.25l1.41,1a.63.63,0,0,0,.28.1.29.29,0,0,0,.24-.16L77.29,101l2.59,3.54a.26.26,0,0,0,.23.16.53.53,0,0,0,.28-.1l1.41-1a.34.34,0,0,0,.14-.25.73.73,0,0,0-.1-.23l-2.58-3.54,4.15-1.34a.34.34,0,0,0,.24-.32.43.43,0,0,0,0-.14L83.11,96c-.06-.16-.15-.25-.28-.25l-.17,0L78.5,97.18V92.87c0-.23-.11-.35-.33-.35H76.44a.32.32,0,0,0-.34.35v4.31L72,95.76l-.17,0c-.15,0-.24.09-.29.25L71,97.73l0,.14A.35.35,0,0,0,71.19,98.19Z"/><path d="M60.91,118.06l4.16,1.35-2.58,3.53a.52.52,0,0,0-.1.24.3.3,0,0,0,.13.25l1.41,1a.62.62,0,0,0,.29.1c.09,0,.16,0,.23-.17L67,120.85l2.59,3.53a.26.26,0,0,0,.23.17.59.59,0,0,0,.29-.1l1.4-1a.34.34,0,0,0,.14-.25.67.67,0,0,0-.1-.24L69,119.41l4.15-1.35a.33.33,0,0,0,.24-.31.41.41,0,0,0,0-.15l-.5-1.75c0-.17-.15-.25-.28-.25l-.17,0-4.16,1.42v-4.3c0-.23-.11-.35-.33-.35H66.16a.32.32,0,0,0-.34.35v4.3l-4.15-1.41-.17,0a.28.28,0,0,0-.28.25l-.51,1.75,0,.15A.34.34,0,0,0,60.91,118.06Z"/><path d="M56,139.71l4.15,1.34-2.58,3.53a.75.75,0,0,0-.1.24.31.31,0,0,0,.14.25l1.4,1a.66.66,0,0,0,.29.1.26.26,0,0,0,.23-.16l2.57-3.54L64.67,146c.07.11.14.16.23.16a.56.56,0,0,0,.29-.1l1.41-1a.33.33,0,0,0,.13-.25.56.56,0,0,0-.1-.24l-2.58-3.53,4.16-1.34a.35.35,0,0,0,.23-.32.58.58,0,0,0,0-.14l-.51-1.76a.3.3,0,0,0-.28-.25l-.17,0L63.3,138.7v-4.31A.31.31,0,0,0,63,134H61.23a.31.31,0,0,0-.33.35v4.31l-4.16-1.42-.17,0a.29.29,0,0,0-.28.25l-.5,1.76,0,.14A.34.34,0,0,0,56,139.71Z"/><path d="M56.1,161.8l4.16,1.34-2.58,3.54a.54.54,0,0,0-.1.23.29.29,0,0,0,.13.25l1.41,1a.66.66,0,0,0,.29.11c.09,0,.16-.06.23-.17l2.57-3.54,2.58,3.54a.27.27,0,0,0,.23.17.62.62,0,0,0,.29-.11l1.4-1a.34.34,0,0,0,.14-.25.73.73,0,0,0-.1-.23l-2.58-3.54,4.15-1.34a.34.34,0,0,0,.24-.32.43.43,0,0,0,0-.14l-.5-1.76a.29.29,0,0,0-.28-.24l-.17,0-4.16,1.42v-4.31c0-.23-.11-.35-.33-.35H61.35a.31.31,0,0,0-.33.35v4.31l-4.16-1.42-.17,0a.28.28,0,0,0-.28.24l-.51,1.76,0,.14A.35.35,0,0,0,56.1,161.8Z"/><path d="M61.25,183.37l4.16,1.34-2.58,3.54a.54.54,0,0,0-.1.23.3.3,0,0,0,.13.25l1.41,1a.63.63,0,0,0,.28.1.29.29,0,0,0,.24-.16l2.56-3.54,2.58,3.54a.29.29,0,0,0,.24.16.53.53,0,0,0,.28-.1l1.41-1a.33.33,0,0,0,.13-.25.54.54,0,0,0-.1-.23l-2.58-3.54,4.16-1.34a.33.33,0,0,0,.23-.32.7.7,0,0,0,0-.14l-.5-1.76c-.06-.16-.15-.25-.29-.25l-.17,0-4.15,1.42v-4.31a.31.31,0,0,0-.34-.35H66.5a.31.31,0,0,0-.34.35v4.31L62,180.94l-.16,0c-.15,0-.24.09-.29.25l-.5,1.76,0,.14A.33.33,0,0,0,61.25,183.37Z"/><path d="M71.53,203.25l4.16,1.34-2.59,3.53a.67.67,0,0,0-.1.24.31.31,0,0,0,.14.25l1.41,1a.59.59,0,0,0,.28.1.28.28,0,0,0,.24-.17L77.63,206l2.58,3.53a.28.28,0,0,0,.24.17.56.56,0,0,0,.28-.1l1.41-1a.33.33,0,0,0,.13-.25.52.52,0,0,0-.1-.24l-2.58-3.53,4.16-1.34a.36.36,0,0,0,.23-.32.64.64,0,0,0,0-.15l-.5-1.75c-.06-.17-.15-.25-.29-.25l-.17,0-4.15,1.42v-4.3a.31.31,0,0,0-.34-.35H76.78a.31.31,0,0,0-.34.35v4.3l-4.16-1.41-.16,0c-.15,0-.24.08-.29.25l-.5,1.75,0,.15A.35.35,0,0,0,71.53,203.25Z"/><path d="M87.35,219.07l4.16,1.34L88.93,224a.62.62,0,0,0-.11.23.3.3,0,0,0,.14.25l1.41,1a.73.73,0,0,0,.28.1.3.3,0,0,0,.24-.17l2.56-3.54L96,225.39a.3.3,0,0,0,.24.17.63.63,0,0,0,.28-.1l1.41-1a.31.31,0,0,0,.13-.25A.54.54,0,0,0,98,224l-2.58-3.54,4.16-1.34a.33.33,0,0,0,.23-.32.7.7,0,0,0,0-.14l-.5-1.76c-.06-.16-.15-.24-.29-.24l-.17,0-4.15,1.42v-4.31a.3.3,0,0,0-.34-.34H92.6c-.23,0-.34.12-.34.34v4.31l-4.16-1.42-.16,0a.29.29,0,0,0-.29.24l-.5,1.76,0,.14A.33.33,0,0,0,87.35,219.07Z"/><path d="M106.31,230.6l4.16,1.34-2.58,3.53a.56.56,0,0,0-.1.24.3.3,0,0,0,.13.25l1.41,1a.62.62,0,0,0,.29.1c.09,0,.16-.05.23-.16l2.57-3.54,2.58,3.54a.26.26,0,0,0,.23.16.59.59,0,0,0,.29-.1l1.4-1a.34.34,0,0,0,.14-.25.56.56,0,0,0-.1-.24l-2.58-3.53,4.15-1.34a.34.34,0,0,0,.24-.32.38.38,0,0,0,0-.14l-.5-1.76c0-.17-.15-.25-.28-.25l-.17,0-4.16,1.42v-4.31c0-.23-.11-.35-.33-.35h-1.73a.31.31,0,0,0-.33.35v4.31l-4.16-1.42-.17,0a.29.29,0,0,0-.28.25l-.51,1.76,0,.14A.35.35,0,0,0,106.31,230.6Z"/><path d="M127.38,237.26l4.16,1.34L129,242.13a.56.56,0,0,0-.1.24.3.3,0,0,0,.13.25l1.41,1a.62.62,0,0,0,.29.1c.09,0,.16-.05.23-.16l2.57-3.54,2.58,3.54a.26.26,0,0,0,.23.16.59.59,0,0,0,.29-.1l1.4-1a.34.34,0,0,0,.14-.25.56.56,0,0,0-.1-.24l-2.58-3.53,4.15-1.34a.34.34,0,0,0,.24-.32.38.38,0,0,0,0-.14l-.5-1.76a.3.3,0,0,0-.28-.25l-.17,0-4.16,1.42v-4.31c0-.23-.11-.35-.33-.35h-1.73a.31.31,0,0,0-.33.35v4.31l-4.16-1.42-.17,0a.29.29,0,0,0-.28.25l-.51,1.76,0,.14A.35.35,0,0,0,127.38,237.26Z"/><path d="M149.48,239l4.15,1.34-2.58,3.54a.73.73,0,0,0-.1.23.3.3,0,0,0,.14.25l1.4,1a.82.82,0,0,0,.29.1.27.27,0,0,0,.23-.17l2.57-3.54,2.58,3.54c.07.11.14.17.23.17a.67.67,0,0,0,.29-.1l1.41-1a.31.31,0,0,0,.13-.25.54.54,0,0,0-.1-.23l-2.58-3.54L161.7,239a.35.35,0,0,0,.23-.32.7.7,0,0,0,0-.14l-.51-1.76a.29.29,0,0,0-.28-.24l-.17,0L156.78,238v-4.31c0-.23-.11-.34-.33-.34h-1.73a.3.3,0,0,0-.33.34V238l-4.16-1.42-.17,0a.28.28,0,0,0-.28.24l-.5,1.76,0,.14A.34.34,0,0,0,149.48,239Z"/><path d="M171.57,235.42l4.16,1.34-2.59,3.53a.75.75,0,0,0-.1.24.31.31,0,0,0,.14.25l1.41,1a.59.59,0,0,0,.28.1.29.29,0,0,0,.24-.16l2.56-3.54,2.58,3.54a.29.29,0,0,0,.24.16.56.56,0,0,0,.28-.1l1.41-1a.33.33,0,0,0,.13-.25.56.56,0,0,0-.1-.24l-2.58-3.53,4.16-1.34a.35.35,0,0,0,.23-.32.58.58,0,0,0,0-.14l-.5-1.76c-.06-.16-.16-.25-.29-.25l-.17,0-4.15,1.42V230.1a.31.31,0,0,0-.34-.35h-1.73a.31.31,0,0,0-.33.35v4.31L172.32,233l-.16,0a.29.29,0,0,0-.29.25l-.5,1.76,0,.14A.34.34,0,0,0,171.57,235.42Z"/><path d="M191.49,225.29l4.16,1.34-2.58,3.54a.54.54,0,0,0-.1.23.29.29,0,0,0,.13.25l1.41,1a.66.66,0,0,0,.29.11c.09,0,.16-.06.23-.17l2.57-3.54,2.58,3.54a.27.27,0,0,0,.23.17.62.62,0,0,0,.29-.11l1.4-1a.34.34,0,0,0,.14-.25.54.54,0,0,0-.1-.23l-2.58-3.54,4.15-1.34A.34.34,0,0,0,204,225a.43.43,0,0,0,0-.14l-.5-1.76a.29.29,0,0,0-.28-.24l-.17,0-4.16,1.42V220c0-.23-.11-.35-.33-.35h-1.73a.31.31,0,0,0-.33.35v4.31l-4.16-1.42-.17,0a.28.28,0,0,0-.28.24l-.51,1.76,0,.14A.35.35,0,0,0,191.49,225.29Z"/><path d="M208.37,210.9l4.15,1.34-2.58,3.54a.54.54,0,0,0-.1.23.3.3,0,0,0,.14.25l1.4,1a.82.82,0,0,0,.29.1.27.27,0,0,0,.23-.17l2.57-3.54,2.58,3.54c.07.11.14.17.23.17a.67.67,0,0,0,.29-.1l1.41-1a.31.31,0,0,0,.13-.25.54.54,0,0,0-.1-.23l-2.58-3.54,4.16-1.34a.35.35,0,0,0,.23-.32.7.7,0,0,0,0-.14l-.51-1.76a.29.29,0,0,0-.28-.24l-.17,0-4.16,1.42v-4.31c0-.23-.11-.35-.33-.35h-1.73a.32.32,0,0,0-.33.35v4.31l-4.16-1.42-.17,0a.28.28,0,0,0-.28.24l-.5,1.76,0,.14A.34.34,0,0,0,208.37,210.9Z"/><path d="M221.32,193l4.16,1.34-2.58,3.54a.54.54,0,0,0-.1.23.32.32,0,0,0,.13.26l1.41,1a.76.76,0,0,0,.29.1c.09,0,.16-.06.23-.17l2.57-3.54L230,199.3a.27.27,0,0,0,.23.17.71.71,0,0,0,.29-.1l1.4-1a.36.36,0,0,0,.14-.26.73.73,0,0,0-.1-.23l-2.58-3.54,4.15-1.34a.34.34,0,0,0,.24-.32.43.43,0,0,0,0-.14l-.5-1.76a.29.29,0,0,0-.28-.24l-.17,0L228.63,192v-4.31c0-.23-.11-.34-.33-.34h-1.73a.3.3,0,0,0-.33.34V192l-4.16-1.42-.17,0a.28.28,0,0,0-.28.25l-.51,1.75,0,.14A.35.35,0,0,0,221.32,193Z"/><path d="M229.72,172.48l4.16,1.34-2.59,3.54a.67.67,0,0,0-.1.24.31.31,0,0,0,.14.25l1.41,1a.59.59,0,0,0,.28.1.3.3,0,0,0,.24-.17l2.56-3.53,2.58,3.53a.3.3,0,0,0,.24.17.56.56,0,0,0,.28-.1l1.41-1a.33.33,0,0,0,.13-.25.52.52,0,0,0-.1-.24l-2.58-3.54,4.16-1.34a.34.34,0,0,0,.23-.32.7.7,0,0,0,0-.14l-.5-1.75c-.06-.17-.16-.25-.29-.25l-.17,0L237,171.47v-4.3a.31.31,0,0,0-.34-.35H235a.31.31,0,0,0-.33.35v4.3l-4.16-1.42-.16,0a.28.28,0,0,0-.29.25l-.5,1.75,0,.14A.34.34,0,0,0,229.72,172.48Z"/><path d="M233.28,150.39l4.16,1.34-2.58,3.54a.54.54,0,0,0-.1.23.32.32,0,0,0,.13.26l1.41,1a.79.79,0,0,0,.28.1.3.3,0,0,0,.24-.17l2.56-3.54,2.58,3.54a.3.3,0,0,0,.24.17.63.63,0,0,0,.28-.1l1.41-1a.36.36,0,0,0,.14-.26.73.73,0,0,0-.1-.23l-2.59-3.54,4.16-1.34a.34.34,0,0,0,.24-.32,1.19,1.19,0,0,0,0-.14l-.5-1.76c-.06-.16-.15-.24-.29-.24l-.16,0-4.16,1.42v-4.31a.3.3,0,0,0-.34-.34h-1.72c-.23,0-.34.12-.34.34v4.31L234,148l-.17,0c-.15,0-.24.08-.29.25l-.5,1.75,0,.14A.35.35,0,0,0,233.28,150.39Z"/><text class="cls-3" transform="translate(121.24 129.74)">FAIR<tspan x="0" y="28">DATA</tspan><tspan x="-22.43" y="56">SOCIETY</tspan></text></g></g></svg>