<svg width="24" height="20" viewBox="0 0 24 20"  xmlns="http://www.w3.org/2000/svg">
<path d="M23.478 2.93708C22.643 3.30708 21.746 3.55708 20.803 3.67008C21.776 3.08787 22.5039 2.17154 22.851 1.09208C21.9368 1.63507 20.9363 2.01727 19.893 2.22208C19.1914 1.47294 18.262 0.976403 17.2493 0.809551C16.2366 0.642699 15.1971 0.814868 14.2922 1.29933C13.3874 1.78379 12.6677 2.55344 12.2451 3.48878C11.8225 4.42412 11.7205 5.47283 11.955 6.47208C10.1027 6.37907 8.2906 5.89763 6.6364 5.05898C4.98219 4.22034 3.52281 3.04324 2.35297 1.60408C1.95297 2.29408 1.72297 3.09408 1.72297 3.94608C1.72253 4.71307 1.91141 5.46832 2.27285 6.14481C2.6343 6.8213 3.15713 7.39812 3.79497 7.82408C3.05525 7.80054 2.33185 7.60066 1.68497 7.24108V7.30108C1.6849 8.37682 2.05701 9.41945 2.73816 10.2521C3.41931 11.0847 4.36754 11.656 5.42197 11.8691C4.73576 12.0548 4.01631 12.0821 3.31797 11.9491C3.61547 12.8747 4.19497 13.6841 4.97534 14.264C5.75571 14.8439 6.69789 15.1653 7.66997 15.1831C6.01981 16.4785 3.98186 17.1812 1.88397 17.1781C1.51235 17.1782 1.14105 17.1565 0.771973 17.1131C2.90145 18.4823 5.38031 19.2089 7.91197 19.2061C16.482 19.2061 21.167 12.1081 21.167 5.95208C21.167 5.75208 21.162 5.55008 21.153 5.35008C22.0643 4.69105 22.8509 3.87497 23.476 2.94008L23.478 2.93708Z"/>
</svg>
