<?xml version="1.0" standalone="no"?>
<!DOCTYPE svg PUBLIC "-//W3C//DTD SVG 20010904//EN"
 "http://www.w3.org/TR/2001/REC-SVG-20010904/DTD/svg10.dtd">
<svg version="1.0" xmlns="http://www.w3.org/2000/svg"
 width="394.000000pt" height="204.000000pt" viewBox="0 0 394.000000 204.000000"
 preserveAspectRatio="xMidYMid meet">

<g transform="translate(0.000000,204.000000) scale(0.100000,-0.100000)"
fill="#000000" stroke="none">
<path d="M2210 1375 l0 -135 25 0 c24 0 25 3 25 55 l0 55 55 0 c48 0 55 2 55
20 0 18 -7 20 -55 20 l-55 0 0 35 0 35 60 0 c57 0 60 1 60 25 0 25 -1 25 -85
25 l-85 0 0 -135z"/>
<path d="M2594 1495 c-4 -9 -2 -21 4 -27 15 -15 44 -1 40 19 -4 23 -36 29 -44
8z"/>
<path d="M2950 1375 l0 -137 70 4 c101 5 115 22 115 133 0 111 -14 128 -115
133 l-70 4 0 -137z m134 69 c11 -28 6 -130 -6 -142 -7 -7 -27 -12 -45 -12
l-33 0 0 85 0 85 39 0 c26 0 41 -5 45 -16z"/>
<path d="M3375 1450 c5 -14 2 -20 -9 -20 -9 0 -16 -9 -16 -20 0 -11 7 -20 15
-20 12 0 15 -14 15 -63 0 -65 11 -87 42 -87 18 0 26 35 9 42 -4 2 -10 27 -13
56 -4 39 -2 52 8 52 8 0 14 9 14 20 0 11 -4 20 -9 20 -5 0 -11 9 -14 20 -3 12
-14 20 -27 20 -17 0 -20 -4 -15 -20z"/>
<path d="M2432 1414 c-12 -8 -22 -19 -22 -23 0 -16 30 -21 49 -9 22 14 51 4
51 -17 0 -10 -10 -15 -33 -15 -41 0 -77 -25 -77 -53 0 -47 38 -69 106 -61 l49
6 -3 77 c-3 61 -7 79 -24 94 -25 21 -66 22 -96 1z m78 -114 c0 -23 -45 -39
-62 -22 -18 18 -1 42 32 42 23 0 30 -4 30 -20z"/>
<path d="M2590 1335 c0 -88 1 -95 20 -95 19 0 20 7 20 95 0 88 -1 95 -20 95
-19 0 -20 -7 -20 -95z"/>
<path d="M2718 1423 l-28 -4 0 -90 c0 -82 2 -89 20 -89 17 0 19 8 22 73 3 68
4 72 28 76 29 4 44 22 27 33 -12 8 -22 8 -69 1z"/>
<path d="M3202 1414 c-12 -8 -22 -19 -22 -23 0 -16 30 -21 49 -9 22 14 51 4
51 -17 0 -10 -10 -15 -33 -15 -41 0 -77 -25 -77 -53 0 -47 38 -69 106 -61 l49
6 -3 77 c-3 61 -7 79 -24 94 -25 21 -66 22 -96 1z m76 -116 c-3 -25 -43 -37
-60 -20 -19 19 0 42 32 42 27 0 31 -3 28 -22z"/>
<path d="M3502 1414 c-12 -8 -22 -19 -22 -23 0 -16 30 -21 49 -9 22 14 51 4
51 -17 0 -10 -10 -15 -33 -15 -41 0 -77 -25 -77 -53 0 -44 38 -68 96 -62 22 2
44 4 49 4 7 1 9 31 7 79 -3 62 -7 80 -24 95 -25 21 -66 22 -96 1z m78 -114 c0
-23 -45 -39 -62 -22 -18 18 -1 42 32 42 23 0 30 -4 30 -20z"/>
<path d="M2280 1006 l0 -136 25 0 c24 0 25 3 25 55 l0 55 48 0 c61 0 87 24 87
81 0 58 -21 73 -110 77 l-75 4 0 -136z m130 79 c7 -8 10 -25 6 -40 -5 -21 -12
-25 -46 -25 -40 0 -40 0 -40 40 0 39 1 40 34 40 18 0 39 -7 46 -15z"/>
<path d="M3510 1021 c0 -95 3 -123 16 -135 22 -22 44 -20 44 4 0 11 -4 20 -10
20 -6 0 -10 45 -10 115 0 108 -1 115 -20 115 -19 0 -20 -7 -20 -119z"/>
<path d="M2845 1080 c5 -14 2 -20 -9 -20 -9 0 -16 -9 -16 -20 0 -11 7 -20 15
-20 12 0 15 -14 15 -63 0 -65 11 -87 42 -87 18 0 26 35 9 42 -4 2 -10 27 -13
56 -4 39 -2 52 8 52 8 0 14 9 14 20 0 11 -4 20 -9 20 -5 0 -11 9 -14 20 -3 12
-14 20 -27 20 -17 0 -20 -4 -15 -20z"/>
<path d="M2538 1053 l-28 -4 0 -90 c0 -82 2 -89 20 -89 17 0 19 8 22 73 3 68
4 72 28 76 29 4 44 22 27 33 -12 8 -22 8 -69 1z"/>
<path d="M2666 1039 c-22 -18 -26 -28 -26 -74 0 -46 4 -56 26 -74 52 -41 118
-18 130 44 18 98 -59 160 -130 104z m70 -27 c30 -21 25 -87 -7 -97 -28 -9 -49
12 -49 49 0 45 27 68 56 48z"/>
<path d="M2976 1039 c-22 -18 -26 -28 -26 -74 0 -46 4 -56 26 -74 52 -41 118
-18 130 44 18 98 -59 160 -130 104z m70 -27 c30 -21 25 -87 -7 -97 -28 -9 -49
12 -49 49 0 45 27 68 56 48z"/>
<path d="M3165 1035 c-55 -54 -19 -165 53 -165 17 0 40 8 52 18 20 16 20 19 7
31 -12 9 -21 10 -36 1 -33 -17 -61 3 -61 45 0 42 28 62 61 45 15 -9 24 -8 36
1 13 12 13 15 -7 31 -32 26 -76 23 -105 -7z"/>
<path d="M3345 1035 c-20 -19 -25 -34 -25 -74 0 -42 4 -53 26 -70 33 -26 75
-27 105 -2 20 16 24 28 24 76 0 48 -4 60 -24 76 -32 26 -77 24 -106 -6z m71
-23 c30 -21 25 -87 -7 -97 -28 -9 -49 12 -49 51 0 40 30 64 56 46z"/>
<path d="M2080 625 l0 -135 90 0 c89 0 90 0 90 25 0 24 -2 25 -65 25 l-65 0 0
30 c0 30 1 30 55 30 48 0 55 2 55 20 0 18 -7 20 -55 20 l-55 0 0 35 0 35 65 0
c63 0 65 1 65 25 0 25 -1 25 -90 25 l-90 0 0 -135z"/>
<path d="M3213 700 c3 -13 0 -20 -9 -20 -8 0 -14 -9 -14 -20 0 -11 7 -20 15
-20 12 0 15 -14 15 -63 0 -65 11 -87 42 -87 18 0 26 35 9 42 -4 2 -10 27 -13
56 -4 39 -2 52 8 52 8 0 14 9 14 20 0 11 -4 20 -9 20 -5 0 -11 9 -14 20 -3 12
-14 20 -27 20 -17 0 -21 -4 -17 -20z"/>
<path d="M2315 655 c-55 -54 -19 -165 53 -165 17 0 40 8 52 18 20 16 20 19 7
31 -12 9 -21 10 -36 1 -48 -25 -85 45 -45 84 18 19 20 19 45 5 15 -8 24 -7 36
2 13 12 13 15 -7 31 -32 26 -76 23 -105 -7z"/>
<path d="M2496 659 c-22 -18 -26 -28 -26 -74 0 -46 4 -56 26 -74 52 -41 118
-18 130 44 18 98 -59 160 -130 104z m77 -40 c8 -11 14 -28 12 -37 -2 -9 -4
-22 -4 -29 -1 -18 -40 -26 -56 -13 -18 15 -20 71 -3 88 18 18 35 15 51 -9z"/>
<path d="M2678 669 c-11 -6 -18 -22 -18 -39 0 -32 24 -53 73 -64 16 -4 27 -12
24 -19 -5 -17 -45 -21 -62 -7 -8 6 -19 9 -25 5 -18 -11 -11 -31 15 -43 60 -28
118 -1 113 51 -3 27 -9 34 -44 47 -51 18 -55 35 -10 35 43 0 56 13 32 31 -23
16 -73 18 -98 3z"/>
<path d="M2820 677 c0 -2 14 -43 30 -93 31 -90 32 -134 5 -134 -8 0 -15 -9
-15 -20 0 -21 24 -27 48 -11 13 8 102 230 102 253 0 5 -10 8 -22 6 -16 -2 -26
-17 -40 -57 -10 -30 -20 -56 -23 -59 -2 -2 -12 23 -21 57 -15 52 -21 61 -41
61 -12 0 -23 -1 -23 -3z"/>
<path d="M3038 669 c-21 -12 -24 -62 -5 -76 6 -6 29 -16 50 -23 21 -6 36 -17
34 -23 -5 -17 -45 -21 -63 -6 -12 10 -17 10 -27 0 -9 -10 -7 -17 12 -32 49
-40 125 -12 119 44 -3 27 -9 34 -44 47 -51 18 -55 35 -10 35 43 0 56 13 32 31
-23 16 -73 18 -98 3z"/>
<path d="M3345 655 c-54 -54 -19 -165 52 -165 38 0 81 29 62 41 -8 5 -27 6
-42 3 -27 -6 -57 9 -57 27 0 5 25 9 55 9 55 0 55 0 55 30 0 38 -39 80 -75 80
-14 0 -37 -11 -50 -25z m73 -27 c20 -20 14 -28 -23 -28 -19 0 -35 4 -35 8 0
12 22 32 35 32 6 0 16 -5 23 -12z"/>
<path d="M3538 673 l-28 -4 0 -90 c0 -82 1 -89 20 -89 18 0 20 7 20 70 0 56 3
72 16 77 27 10 44 -25 44 -89 0 -51 2 -58 20 -58 18 0 20 7 20 64 0 67 13 92
44 80 13 -5 16 -21 16 -75 0 -62 2 -69 20 -69 18 0 20 7 20 75 0 62 -4 79 -20
95 -22 22 -69 27 -87 9 -8 -8 -17 -8 -31 0 -21 11 -25 11 -74 4z"/>
</g>
</svg>
