<svg xmlns="http://www.w3.org/2000/svg" xmlns:xlink="http://www.w3.org/1999/xlink" width="500" zoomAndPan="magnify" viewBox="0 0 375 374.999991" height="500" preserveAspectRatio="xMidYMid meet" version="1.0"><defs><g/><clipPath id="id1"><path d="M 64 161 L 100 161 L 100 217.917969 L 64 217.917969 Z M 64 161 " clip-rule="nonzero"/></clipPath><clipPath id="id2"><path d="M 131 162 L 138.75 162 L 138.75 170 L 131 170 Z M 131 162 " clip-rule="nonzero"/></clipPath><clipPath id="id3"><path d="M 37.5 159 L 45 159 L 45 167 L 37.5 167 Z M 37.5 159 " clip-rule="nonzero"/></clipPath></defs><path fill="#b8ffe4" d="M 121.820312 157.050781 L 121.925781 156.566406 C 122.550781 153.660156 124.726562 151.40625 127.542969 150.457031 C 130.652344 149.410156 133.152344 146.757812 133.800781 143.21875 C 134.605469 138.847656 132.144531 134.414062 128.003906 132.800781 C 122.6875 130.726562 116.910156 133.757812 115.472656 139.113281 C 114.53125 142.636719 115.71875 146.230469 118.25 148.519531 C 120.476562 150.535156 121.34375 153.660156 120.710938 156.601562 L 120.664062 156.804688 C 120.140625 159.234375 118.59375 161.378906 116.351562 162.453125 C 114.84375 163.171875 113.648438 164.523438 113.179688 166.265625 C 113.101562 166.550781 113.050781 166.835938 113.015625 167.121094 C 112.722656 169.644531 111.160156 171.84375 108.996094 173.167969 L 106.503906 174.695312 C 104.496094 175.921875 102.09375 176.148438 99.808594 175.578125 C 99.574219 175.519531 99.332031 175.476562 99.082031 175.453125 C 97.105469 175.265625 95.171875 176.386719 94.355469 178.195312 C 93 181.191406 94.957031 184.582031 98.230469 184.90625 C 100.238281 185.109375 102.199219 183.953125 103.003906 182.101562 C 103.152344 181.761719 103.253906 181.421875 103.324219 181.078125 C 103.757812 178.832031 105.167969 176.894531 107.121094 175.699219 L 109.847656 174.03125 C 111.988281 172.722656 114.585938 172.574219 116.960938 173.398438 C 117.359375 173.535156 117.78125 173.636719 118.222656 173.6875 C 120.832031 174.003906 123.398438 172.492188 124.386719 170.054688 C 125.261719 167.890625 124.792969 165.597656 123.445312 163.988281 C 121.84375 162.078125 121.292969 159.492188 121.820312 157.050781 " fill-opacity="1" fill-rule="nonzero"/><path fill="#ffb7d3" d="M 111.570312 190.042969 L 112.042969 189.890625 C 114.871094 188.980469 117.914062 189.738281 120.140625 191.703125 C 122.601562 193.871094 126.148438 194.710938 129.539062 193.503906 C 133.726562 192.011719 136.332031 187.667969 135.660156 183.273438 C 134.800781 177.632812 129.285156 174.144531 123.929688 175.578125 C 120.40625 176.523438 117.890625 179.347656 117.171875 182.6875 C 116.539062 185.625 114.265625 187.933594 111.40625 188.855469 L 111.207031 188.921875 C 108.839844 189.683594 106.210938 189.414062 104.15625 188.007812 C 102.78125 187.0625 101.011719 186.703125 99.269531 187.167969 C 98.984375 187.246094 98.710938 187.339844 98.445312 187.457031 C 96.117188 188.460938 93.429688 188.207031 91.199219 186.996094 L 88.632812 185.601562 C 86.570312 184.476562 85.167969 182.503906 84.519531 180.246094 C 84.453125 180.011719 84.371094 179.78125 84.265625 179.550781 C 83.441406 177.746094 81.503906 176.632812 79.527344 176.828125 C 76.253906 177.15625 74.296875 180.542969 75.652344 183.539062 C 76.484375 185.378906 78.464844 186.5 80.46875 186.273438 C 80.835938 186.230469 81.183594 186.152344 81.511719 186.035156 C 83.675781 185.289062 86.0625 185.542969 88.074219 186.636719 L 90.878906 188.164062 C 93.085938 189.363281 94.511719 191.542969 94.984375 194.007812 C 95.0625 194.421875 95.191406 194.835938 95.363281 195.246094 C 96.394531 197.667969 98.988281 199.128906 101.59375 198.769531 C 103.902344 198.445312 105.652344 196.890625 106.371094 194.921875 C 107.230469 192.574219 109.195312 190.808594 111.570312 190.042969 " fill-opacity="1" fill-rule="nonzero"/><g clip-path="url(#id1)"><path fill="#b8ffe4" d="M 77.875 197.660156 L 78.242188 197.996094 C 80.445312 199.988281 81.3125 203.003906 80.722656 205.914062 C 80.074219 209.132812 81.121094 212.621094 83.863281 214.957031 C 87.246094 217.835938 92.316406 217.921875 95.78125 215.144531 C 100.234375 211.578125 100.5 205.054688 96.582031 201.136719 C 94.003906 198.554688 90.296875 197.789062 87.046875 198.835938 C 84.1875 199.757812 81.046875 198.941406 78.820312 196.925781 L 78.664062 196.785156 C 76.820312 195.117188 75.738281 192.707031 75.933594 190.222656 C 76.0625 188.558594 75.488281 186.847656 74.214844 185.570312 C 74.007812 185.363281 73.785156 185.171875 73.554688 185 C 71.515625 183.488281 70.394531 181.035156 70.328125 178.496094 L 70.253906 175.574219 C 70.195312 173.222656 71.203125 171.027344 72.835938 169.335938 C 73.003906 169.164062 73.160156 168.972656 73.308594 168.765625 C 74.460938 167.152344 74.457031 164.917969 73.296875 163.300781 C 71.378906 160.632812 67.46875 160.628906 65.546875 163.300781 C 64.371094 164.941406 64.390625 167.21875 65.589844 168.839844 C 65.808594 169.136719 66.054688 169.398438 66.316406 169.625 C 68.046875 171.128906 69.015625 173.320312 69.074219 175.609375 L 69.15625 178.804688 C 69.21875 181.3125 68.046875 183.636719 66.148438 185.28125 C 65.828125 185.554688 65.535156 185.871094 65.265625 186.230469 C 63.6875 188.332031 63.714844 191.308594 65.332031 193.382812 C 66.765625 195.222656 68.988281 195.960938 71.054688 195.597656 C 73.511719 195.167969 76.023438 195.988281 77.875 197.660156 " fill-opacity="1" fill-rule="nonzero"/></g><path fill="#ffb7d3" d="M 54.429688 172.285156 L 54.324219 172.773438 C 53.699219 175.679688 51.523438 177.933594 48.707031 178.882812 C 45.597656 179.929688 43.097656 182.582031 42.449219 186.121094 C 41.648438 190.492188 44.105469 194.921875 48.246094 196.539062 C 53.5625 198.613281 59.339844 195.582031 60.777344 190.226562 C 61.71875 186.703125 60.53125 183.109375 58 180.820312 C 55.773438 178.804688 54.90625 175.675781 55.539062 172.738281 L 55.582031 172.535156 C 56.105469 170.101562 57.65625 167.960938 59.898438 166.886719 C 61.40625 166.167969 62.601562 164.816406 63.070312 163.074219 C 63.144531 162.789062 63.199219 162.5 63.234375 162.21875 C 63.527344 159.695312 65.089844 157.496094 67.253906 156.167969 L 69.746094 154.644531 C 71.753906 153.417969 74.15625 153.191406 76.441406 153.761719 C 76.675781 153.820312 76.917969 153.859375 77.167969 153.886719 C 79.144531 154.074219 81.078125 152.953125 81.894531 151.144531 C 83.25 148.144531 81.292969 144.757812 78.019531 144.433594 C 76.011719 144.230469 74.050781 145.386719 73.246094 147.238281 C 73.097656 147.574219 72.996094 147.917969 72.929688 148.257812 C 72.492188 150.507812 71.082031 152.445312 69.128906 153.640625 L 66.402344 155.308594 C 64.261719 156.617188 61.664062 156.761719 59.289062 155.941406 C 58.890625 155.804688 58.46875 155.703125 58.027344 155.652344 C 55.417969 155.332031 52.851562 156.847656 51.863281 159.285156 C 50.988281 161.445312 51.457031 163.742188 52.804688 165.347656 C 54.40625 167.261719 54.953125 169.847656 54.429688 172.285156 " fill-opacity="1" fill-rule="nonzero"/><path fill="#b8ffe4" d="M 64.679688 139.292969 L 64.207031 139.449219 C 61.378906 140.359375 58.335938 139.601562 56.109375 137.636719 C 53.648438 135.464844 50.101562 134.628906 46.710938 135.835938 C 42.523438 137.324219 39.917969 141.671875 40.589844 146.066406 C 41.449219 151.703125 46.964844 155.195312 52.320312 153.761719 C 55.84375 152.816406 58.359375 149.992188 59.078125 146.652344 C 59.710938 143.714844 61.984375 141.402344 64.84375 140.484375 L 65.042969 140.417969 C 67.410156 139.65625 70.039062 139.925781 72.089844 141.332031 C 73.46875 142.277344 75.238281 142.636719 76.980469 142.171875 C 77.265625 142.09375 77.539062 142 77.804688 141.882812 C 80.132812 140.875 82.820312 141.128906 85.050781 142.34375 L 87.617188 143.738281 C 89.679688 144.863281 91.082031 146.832031 91.730469 149.09375 C 91.796875 149.328125 91.878906 149.558594 91.984375 149.785156 C 92.808594 151.59375 94.746094 152.707031 96.722656 152.511719 C 99.996094 152.183594 101.953125 148.796875 100.597656 145.800781 C 99.765625 143.960938 97.785156 142.839844 95.78125 143.066406 C 95.414062 143.109375 95.066406 143.1875 94.738281 143.300781 C 92.570312 144.046875 90.1875 143.796875 88.175781 142.699219 L 85.371094 141.175781 C 83.164062 139.972656 81.742188 137.796875 81.265625 135.332031 C 81.1875 134.917969 81.058594 134.5 80.886719 134.089844 C 79.855469 131.671875 77.261719 130.207031 74.65625 130.570312 C 72.347656 130.894531 70.597656 132.449219 69.878906 134.417969 C 69.023438 136.761719 67.054688 138.53125 64.679688 139.292969 " fill-opacity="1" fill-rule="nonzero"/><path fill="#ffb7d3" d="M 98.375 131.679688 L 98.007812 131.34375 C 95.804688 129.347656 94.9375 126.335938 95.527344 123.421875 C 96.175781 120.207031 95.128906 116.714844 92.386719 114.382812 C 89.003906 111.503906 83.933594 111.417969 80.46875 114.195312 C 76.015625 117.761719 75.75 124.285156 79.667969 128.203125 C 82.246094 130.785156 85.953125 131.550781 89.203125 130.503906 C 92.0625 129.582031 95.203125 130.398438 97.429688 132.414062 L 97.585938 132.550781 C 99.429688 134.222656 100.511719 136.632812 100.316406 139.113281 C 100.1875 140.78125 100.757812 142.492188 102.035156 143.765625 C 102.242188 143.976562 102.464844 144.167969 102.695312 144.335938 C 104.734375 145.851562 105.855469 148.304688 105.921875 150.84375 L 105.996094 153.761719 C 106.054688 156.113281 105.046875 158.3125 103.414062 160.003906 C 103.246094 160.175781 103.089844 160.367188 102.941406 160.570312 C 101.789062 162.1875 101.792969 164.421875 102.953125 166.035156 C 104.871094 168.707031 108.78125 168.707031 110.703125 166.035156 C 111.878906 164.398438 111.859375 162.121094 110.660156 160.496094 C 110.441406 160.203125 110.195312 159.941406 109.933594 159.710938 C 108.203125 158.210938 107.234375 156.019531 107.175781 153.730469 L 107.09375 150.535156 C 107.03125 148.027344 108.203125 145.703125 110.101562 144.058594 C 110.421875 143.78125 110.714844 143.46875 110.984375 143.109375 C 112.5625 141.007812 112.535156 138.03125 110.917969 135.957031 C 109.484375 134.117188 107.261719 133.378906 105.195312 133.738281 C 102.738281 134.171875 100.226562 133.351562 98.375 131.679688 " fill-opacity="1" fill-rule="nonzero"/><path fill="#b8ffe4" d="M 115.746094 124.714844 C 115.746094 126.625 114.199219 128.175781 112.289062 128.175781 C 110.375 128.175781 108.824219 126.625 108.824219 124.714844 C 108.824219 122.800781 110.375 121.253906 112.289062 121.253906 C 114.199219 121.253906 115.746094 122.800781 115.746094 124.714844 " fill-opacity="1" fill-rule="nonzero"/><path fill="#ffb7d3" d="M 67.425781 204.625 C 67.425781 206.535156 65.875 208.085938 63.964844 208.085938 C 62.050781 208.085938 60.503906 206.535156 60.503906 204.625 C 60.503906 202.714844 62.050781 201.164062 63.964844 201.164062 C 65.875 201.164062 67.425781 202.714844 67.425781 204.625 " fill-opacity="1" fill-rule="nonzero"/><g clip-path="url(#id2)"><path fill="#ffb7d3" d="M 136.492188 169.140625 C 134.824219 170.078125 132.714844 169.488281 131.777344 167.824219 C 130.839844 166.15625 131.429688 164.046875 133.09375 163.109375 C 134.761719 162.171875 136.871094 162.761719 137.808594 164.425781 C 138.746094 166.09375 138.15625 168.203125 136.492188 169.140625 " fill-opacity="1" fill-rule="nonzero"/></g><g clip-path="url(#id3)"><path fill="#b8ffe4" d="M 43.15625 166.230469 C 41.488281 167.167969 39.378906 166.578125 38.441406 164.914062 C 37.503906 163.246094 38.09375 161.136719 39.761719 160.199219 C 41.425781 159.261719 43.535156 159.851562 44.472656 161.515625 C 45.410156 163.183594 44.820312 165.292969 43.15625 166.230469 " fill-opacity="1" fill-rule="nonzero"/></g><path fill="#b8ffe4" d="M 109.175781 208.445312 C 107.515625 207.5 106.933594 205.386719 107.882812 203.726562 C 108.828125 202.066406 110.9375 201.484375 112.601562 202.429688 C 114.261719 203.375 114.839844 205.488281 113.894531 207.152344 C 112.949219 208.8125 110.835938 209.390625 109.175781 208.445312 " fill-opacity="1" fill-rule="nonzero"/><path fill="#ffb7d3" d="M 63.648438 126.910156 C 61.988281 125.964844 61.410156 123.851562 62.355469 122.1875 C 63.300781 120.527344 65.414062 119.949219 67.074219 120.894531 C 68.734375 121.839844 69.316406 123.953125 68.371094 125.613281 C 67.421875 127.273438 65.308594 127.855469 63.648438 126.910156 " fill-opacity="1" fill-rule="nonzero"/><g fill="#000000" fill-opacity="1"><g transform="translate(146.013889, 165.502322)"><g><path d="M 1.265625 0 L 3.484375 0 L 3.484375 -5.292969 L 9.003906 -5.292969 L 9.003906 -7 L 3.484375 -7 L 3.484375 -10.535156 L 9.867188 -10.535156 L 9.867188 -12.453125 L 1.265625 -12.453125 Z M 1.265625 0 "/></g></g></g><g fill="#000000" fill-opacity="1"><g transform="translate(156.42559, 165.502322)"><g><path d="M 0.265625 0 L 2.550781 0 L 3.484375 -2.585938 L 9.023438 -2.585938 L 9.953125 0 L 12.257812 0 L 7.898438 -12.453125 L 4.625 -12.453125 Z M 3.957031 -4.238281 L 6.171875 -10.535156 L 6.332031 -10.535156 L 8.546875 -4.238281 Z M 3.957031 -4.238281 "/></g></g></g><g fill="#000000" fill-opacity="1"><g transform="translate(168.930179, 165.502322)"><g><path d="M 1.265625 0 L 3.484375 0 L 3.484375 -12.453125 L 1.265625 -12.453125 Z M 1.265625 0 "/></g></g></g><g fill="#000000" fill-opacity="1"><g transform="translate(173.678761, 165.502322)"><g><path d="M 1.265625 0 L 3.484375 0 L 3.484375 -4.765625 L 5.523438 -4.765625 L 9.375 0 L 11.890625 0 L 7.703125 -4.925781 L 8.089844 -4.941406 C 10.273438 -5.117188 11.75 -6.523438 11.75 -8.566406 C 11.75 -10.941406 9.902344 -12.453125 7.035156 -12.453125 L 1.265625 -12.453125 Z M 3.484375 -6.277344 L 3.484375 -10.800781 L 6.683594 -10.800781 C 8.390625 -10.800781 9.515625 -9.972656 9.515625 -8.546875 C 9.515625 -7.160156 8.371094 -6.277344 6.683594 -6.277344 Z M 3.484375 -6.277344 "/></g></g></g><g fill="#000000" fill-opacity="1"><g transform="translate(186.218523, 165.502322)"><g/></g></g><g fill="#000000" fill-opacity="1"><g transform="translate(190.54501, 165.502322)"><g><path d="M 1.265625 0 L 5.734375 0 C 9.847656 0 12.59375 -2.375 12.59375 -6.226562 C 12.59375 -10.078125 9.832031 -12.453125 5.734375 -12.453125 L 1.265625 -12.453125 Z M 3.414062 -1.722656 L 3.414062 -10.746094 L 5.734375 -10.746094 C 8.476562 -10.746094 10.378906 -9.039062 10.378906 -6.226562 C 10.378906 -3.414062 8.511719 -1.722656 5.734375 -1.722656 Z M 3.414062 -1.722656 "/></g></g></g><g fill="#000000" fill-opacity="1"><g transform="translate(203.911384, 165.502322)"><g><path d="M 0.265625 0 L 2.550781 0 L 3.484375 -2.585938 L 9.023438 -2.585938 L 9.953125 0 L 12.257812 0 L 7.898438 -12.453125 L 4.625 -12.453125 Z M 3.957031 -4.238281 L 6.171875 -10.535156 L 6.332031 -10.535156 L 8.546875 -4.238281 Z M 3.957031 -4.238281 "/></g></g></g><g fill="#000000" fill-opacity="1"><g transform="translate(216.415973, 165.502322)"><g><path d="M 4.433594 0 L 6.648438 0 L 6.648438 -10.605469 L 10.816406 -10.605469 L 10.816406 -12.453125 L 0.28125 -12.453125 L 0.28125 -10.605469 L 4.433594 -10.605469 Z M 4.433594 0 "/></g></g></g><g fill="#000000" fill-opacity="1"><g transform="translate(227.495995, 165.502322)"><g><path d="M 0.265625 0 L 2.550781 0 L 3.484375 -2.585938 L 9.023438 -2.585938 L 9.953125 0 L 12.257812 0 L 7.898438 -12.453125 L 4.625 -12.453125 Z M 3.957031 -4.238281 L 6.171875 -10.535156 L 6.332031 -10.535156 L 8.546875 -4.238281 Z M 3.957031 -4.238281 "/></g></g></g><g fill="#000000" fill-opacity="1"><g transform="translate(244.327071, 165.502322)"><g><path d="M 1.265625 0 L 3.484375 0 L 3.484375 -4.238281 L 6.417969 -4.238281 C 9.496094 -4.238281 11.257812 -5.910156 11.257812 -8.355469 C 11.273438 -10.78125 9.515625 -12.453125 6.4375 -12.453125 L 1.265625 -12.453125 Z M 3.484375 -5.890625 L 3.484375 -10.800781 L 6.207031 -10.800781 C 8.054688 -10.800781 9.039062 -9.777344 9.039062 -8.355469 C 9.039062 -6.894531 8.054688 -5.890625 6.207031 -5.890625 Z M 3.484375 -5.890625 "/></g></g></g><g fill="#000000" fill-opacity="1"><g transform="translate(256.198521, 165.502322)"><g><path d="M 1.265625 0 L 3.484375 0 L 3.484375 -4.765625 L 5.523438 -4.765625 L 9.375 0 L 11.890625 0 L 7.703125 -4.925781 L 8.089844 -4.941406 C 10.273438 -5.117188 11.75 -6.523438 11.75 -8.566406 C 11.75 -10.941406 9.902344 -12.453125 7.035156 -12.453125 L 1.265625 -12.453125 Z M 3.484375 -6.277344 L 3.484375 -10.800781 L 6.683594 -10.800781 C 8.390625 -10.800781 9.515625 -9.972656 9.515625 -8.546875 C 9.515625 -7.160156 8.371094 -6.277344 6.683594 -6.277344 Z M 3.484375 -6.277344 "/></g></g></g><g fill="#000000" fill-opacity="1"><g transform="translate(268.738283, 165.502322)"><g><path d="M 7.5625 0.335938 C 11.574219 0.335938 14.371094 -2.304688 14.371094 -6.226562 C 14.371094 -10.148438 11.574219 -12.804688 7.5625 -12.804688 C 3.554688 -12.804688 0.757812 -10.148438 0.757812 -6.226562 C 0.757812 -2.304688 3.554688 0.335938 7.5625 0.335938 Z M 7.5625 -1.511719 C 4.890625 -1.511719 2.988281 -3.464844 2.988281 -6.226562 C 2.988281 -9.003906 4.890625 -10.941406 7.5625 -10.941406 C 10.253906 -10.941406 12.152344 -9.003906 12.152344 -6.226562 C 12.152344 -3.449219 10.253906 -1.511719 7.5625 -1.511719 Z M 7.5625 -1.511719 "/></g></g></g><g fill="#000000" fill-opacity="1"><g transform="translate(283.88097, 165.502322)"><g><path d="M 4.433594 0 L 6.648438 0 L 6.648438 -10.605469 L 10.816406 -10.605469 L 10.816406 -12.453125 L 0.28125 -12.453125 L 0.28125 -10.605469 L 4.433594 -10.605469 Z M 4.433594 0 "/></g></g></g><g fill="#000000" fill-opacity="1"><g transform="translate(294.960992, 165.502322)"><g><path d="M 7.5625 0.335938 C 11.574219 0.335938 14.371094 -2.304688 14.371094 -6.226562 C 14.371094 -10.148438 11.574219 -12.804688 7.5625 -12.804688 C 3.554688 -12.804688 0.757812 -10.148438 0.757812 -6.226562 C 0.757812 -2.304688 3.554688 0.335938 7.5625 0.335938 Z M 7.5625 -1.511719 C 4.890625 -1.511719 2.988281 -3.464844 2.988281 -6.226562 C 2.988281 -9.003906 4.890625 -10.941406 7.5625 -10.941406 C 10.253906 -10.941406 12.152344 -9.003906 12.152344 -6.226562 C 12.152344 -3.449219 10.253906 -1.511719 7.5625 -1.511719 Z M 7.5625 -1.511719 "/></g></g></g><g fill="#000000" fill-opacity="1"><g transform="translate(310.103679, 165.502322)"><g><path d="M 7.421875 0.335938 C 10.640625 0.335938 13.207031 -1.617188 13.613281 -4.308594 L 11.539062 -4.574219 C 11.167969 -2.847656 9.460938 -1.511719 7.492188 -1.511719 C 4.835938 -1.511719 2.988281 -3.449219 2.988281 -6.226562 C 2.988281 -9.023438 4.820312 -10.941406 7.492188 -10.941406 C 9.445312 -10.941406 11.152344 -9.585938 11.519531 -7.808594 L 13.597656 -8.054688 C 13.15625 -10.800781 10.589844 -12.804688 7.421875 -12.804688 C 3.554688 -12.804688 0.773438 -10.097656 0.773438 -6.226562 C 0.773438 -2.375 3.554688 0.335938 7.421875 0.335938 Z M 7.421875 0.335938 "/></g></g></g><g fill="#000000" fill-opacity="1"><g transform="translate(324.490112, 165.502322)"><g><path d="M 7.5625 0.335938 C 11.574219 0.335938 14.371094 -2.304688 14.371094 -6.226562 C 14.371094 -10.148438 11.574219 -12.804688 7.5625 -12.804688 C 3.554688 -12.804688 0.757812 -10.148438 0.757812 -6.226562 C 0.757812 -2.304688 3.554688 0.335938 7.5625 0.335938 Z M 7.5625 -1.511719 C 4.890625 -1.511719 2.988281 -3.464844 2.988281 -6.226562 C 2.988281 -9.003906 4.890625 -10.941406 7.5625 -10.941406 C 10.253906 -10.941406 12.152344 -9.003906 12.152344 -6.226562 C 12.152344 -3.449219 10.253906 -1.511719 7.5625 -1.511719 Z M 7.5625 -1.511719 "/></g></g></g><g fill="#000000" fill-opacity="1"><g transform="translate(339.632799, 165.502322)"><g><path d="M 1.265625 0 L 9.671875 0 L 9.671875 -1.917969 L 3.484375 -1.917969 L 3.484375 -12.453125 L 1.265625 -12.453125 Z M 1.265625 0 "/></g></g></g><g fill="#000000" fill-opacity="1"><g transform="translate(145.740315, 181.75999)"><g><path d="M 0.863281 0 L 7.160156 0 L 7.160156 -1.226562 L 2.332031 -1.226562 L 2.332031 -3.84375 L 6.691406 -3.84375 L 6.691406 -4.875 L 2.332031 -4.875 L 2.332031 -7.289062 L 7.039062 -7.289062 L 7.039062 -8.503906 L 0.863281 -8.503906 Z M 0.863281 0 "/></g></g></g><g fill="#000000" fill-opacity="1"><g transform="translate(153.359616, 181.75999)"><g><path d="M 5.070312 0.226562 C 7.265625 0.226562 9.019531 -1.105469 9.296875 -2.941406 L 7.878906 -3.121094 C 7.628906 -1.945312 6.460938 -1.03125 5.117188 -1.03125 C 3.304688 -1.03125 2.042969 -2.355469 2.042969 -4.25 C 2.042969 -6.160156 3.292969 -7.472656 5.117188 -7.472656 C 6.449219 -7.472656 7.613281 -6.546875 7.867188 -5.332031 L 9.285156 -5.5 C 8.984375 -7.375 7.230469 -8.742188 5.070312 -8.742188 C 2.425781 -8.742188 0.527344 -6.894531 0.527344 -4.25 C 0.527344 -1.621094 2.425781 0.226562 5.070312 0.226562 Z M 5.070312 0.226562 "/></g></g></g><g fill="#000000" fill-opacity="1"><g transform="translate(163.174713, 181.75999)"><g><path d="M 5.164062 0.226562 C 7.902344 0.226562 9.8125 -1.574219 9.8125 -4.25 C 9.8125 -6.929688 7.902344 -8.742188 5.164062 -8.742188 C 2.425781 -8.742188 0.515625 -6.929688 0.515625 -4.25 C 0.515625 -1.574219 2.425781 0.226562 5.164062 0.226562 Z M 5.164062 -1.03125 C 3.339844 -1.03125 2.042969 -2.367188 2.042969 -4.25 C 2.042969 -6.148438 3.339844 -7.472656 5.164062 -7.472656 C 7.003906 -7.472656 8.300781 -6.148438 8.300781 -4.25 C 8.300781 -2.355469 7.003906 -1.03125 5.164062 -1.03125 Z M 5.164062 -1.03125 "/></g></g></g><g fill="#000000" fill-opacity="1"><g transform="translate(173.505767, 181.75999)"><g><path d="M 4.238281 0.226562 C 6.4375 0.226562 7.878906 -0.792969 7.878906 -2.390625 C 7.878906 -4.3125 6.03125 -4.601562 4.515625 -4.828125 C 3.316406 -5.007812 2.222656 -5.1875 2.222656 -6.199219 C 2.222656 -7.027344 2.953125 -7.613281 4.167969 -7.613281 C 5.429688 -7.613281 6.246094 -6.953125 6.246094 -5.863281 L 7.640625 -5.863281 C 7.628906 -7.589844 6.246094 -8.742188 4.109375 -8.742188 C 2.03125 -8.742188 0.695312 -7.6875 0.695312 -6.101562 C 0.695312 -4.144531 2.605469 -3.902344 4.109375 -3.6875 C 5.285156 -3.507812 6.367188 -3.339844 6.367188 -2.304688 C 6.367188 -1.453125 5.550781 -0.902344 4.300781 -0.902344 C 2.894531 -0.902344 2.03125 -1.609375 2.03125 -2.761719 L 0.601562 -2.75 C 0.601562 -0.960938 2.042969 0.226562 4.238281 0.226562 Z M 4.238281 0.226562 "/></g></g></g><g fill="#000000" fill-opacity="1"><g transform="translate(181.976994, 181.75999)"><g><path d="M 3.121094 0 L 4.625 0 L 4.625 -3.195312 L 7.53125 -8.503906 L 5.921875 -8.503906 L 3.914062 -4.589844 L 3.820312 -4.589844 L 1.765625 -8.503906 L 0.179688 -8.503906 L 3.121094 -3.195312 Z M 3.121094 0 "/></g></g></g><g fill="#000000" fill-opacity="1"><g transform="translate(189.668291, 181.75999)"><g><path d="M 4.238281 0.226562 C 6.4375 0.226562 7.878906 -0.792969 7.878906 -2.390625 C 7.878906 -4.3125 6.03125 -4.601562 4.515625 -4.828125 C 3.316406 -5.007812 2.222656 -5.1875 2.222656 -6.199219 C 2.222656 -7.027344 2.953125 -7.613281 4.167969 -7.613281 C 5.429688 -7.613281 6.246094 -6.953125 6.246094 -5.863281 L 7.640625 -5.863281 C 7.628906 -7.589844 6.246094 -8.742188 4.109375 -8.742188 C 2.03125 -8.742188 0.695312 -7.6875 0.695312 -6.101562 C 0.695312 -4.144531 2.605469 -3.902344 4.109375 -3.6875 C 5.285156 -3.507812 6.367188 -3.339844 6.367188 -2.304688 C 6.367188 -1.453125 5.550781 -0.902344 4.300781 -0.902344 C 2.894531 -0.902344 2.03125 -1.609375 2.03125 -2.761719 L 0.601562 -2.75 C 0.601562 -0.960938 2.042969 0.226562 4.238281 0.226562 Z M 4.238281 0.226562 "/></g></g></g><g fill="#000000" fill-opacity="1"><g transform="translate(198.139517, 181.75999)"><g><path d="M 3.027344 0 L 4.539062 0 L 4.539062 -7.242188 L 7.386719 -7.242188 L 7.386719 -8.503906 L 0.191406 -8.503906 L 0.191406 -7.242188 L 3.027344 -7.242188 Z M 3.027344 0 "/></g></g></g><g fill="#000000" fill-opacity="1"><g transform="translate(205.698822, 181.75999)"><g><path d="M 0.863281 0 L 7.160156 0 L 7.160156 -1.226562 L 2.332031 -1.226562 L 2.332031 -3.84375 L 6.691406 -3.84375 L 6.691406 -4.875 L 2.332031 -4.875 L 2.332031 -7.289062 L 7.039062 -7.289062 L 7.039062 -8.503906 L 0.863281 -8.503906 Z M 0.863281 0 "/></g></g></g><g fill="#000000" fill-opacity="1"><g transform="translate(213.318123, 181.75999)"><g><path d="M 0.851562 0 L 2.316406 0 L 2.316406 -6.449219 L 2.425781 -6.449219 L 5.09375 0 L 6.328125 0 L 9.007812 -6.460938 L 9.105469 -6.460938 L 9.105469 0 L 10.570312 0 L 10.570312 -8.503906 L 8.492188 -8.503906 L 5.765625 -1.8125 L 5.667969 -1.8125 L 2.90625 -8.503906 L 0.851562 -8.503906 Z M 0.851562 0 "/></g></g></g></svg>